<?xml version="1.0" encoding="iso-8859-1"?>
<!-- Generator: Adobe Illustrator 19.0.0, SVG Export Plug-In . SVG Version: 6.00 Build 0)  -->
<svg version="1.1" id="Layer_1" xmlns="http://www.w3.org/2000/svg" xmlns:xlink="http://www.w3.org/1999/xlink" x="0px" y="0px"
	 viewBox="0 0 512 512" style="enable-background:new 0 0 512 512;" xml:space="preserve">
<polygon style="fill:#CCCCCC;" points="462.136,217.687 468.476,256.523 447.384,256.523 243.822,256.523 222.73,256.523 
	229.071,217.687 246.302,217.687 444.891,217.687 "/>
<polygon style="fill:#B3B3B3;" points="277.097,217.687 272.428,256.523 268.162,256.523 226.996,256.523 222.73,256.523 
	224.012,217.687 227.497,217.687 267.657,217.687 "/>
<path style="fill:#F7B239;" d="M447.384,256.523l-6.468,78.106h-63.674c-12.004,0-22.869,4.858-30.731,12.732
	c-7.875,7.862-12.732,18.728-12.732,30.731c0,24.007,19.456,43.463,43.463,43.463h56.464l-6.698,80.854h-48.385H264.199
	l-20.377-245.887L447.384,256.523L447.384,256.523z"/>
<polygon style="fill:#E09B2D;" points="243.822,256.523 264.199,502.41 292.437,502.41 286.791,256.523 "/>
<polygon style="fill:#CCCCCC;" points="434.971,180.232 444.891,217.687 246.302,217.687 256.222,180.232 264.429,180.232 
	339.237,180.232 390.588,180.232 "/>
<polygon style="fill:#B3B3B3;" points="294.092,180.232 289.881,217.687 246.302,217.687 248.816,180.232 250.894,180.232 
	269.843,180.232 282.85,180.232 "/>
<path style="fill:#F95428;" d="M440.916,334.629l-7.21,86.927h-56.464c-24.007,0-43.463-19.456-43.463-43.463
	c0-12.004,4.858-22.869,12.732-30.731c7.862-7.875,18.728-12.732,30.731-12.732H440.916z"/>
<path style="fill:#F7B239;" d="M79.391,74.757c-1.432-3.49-2.212-7.312-2.212-11.313c0-16.439,13.333-29.785,29.798-29.785
	c8.245,0,15.711,3.349,21.105,8.769c5.318-15.455,19.968-26.564,37.225-26.564c11.71,0,22.217,5.101,29.414,13.218
	c4.206-11.377,15.148-19.495,27.97-19.495c13.576,0,25.017,9.076,28.622,21.489c7.197-9.255,18.434-15.212,31.063-15.212
	c17.257,0,31.933,11.109,37.238,26.564c5.395-5.42,12.86-8.769,21.118-8.769c16.452,0,29.798,13.346,29.798,29.785
	c0,4.001-0.805,7.823-2.237,11.313c20.108,1.764,35.883,18.625,35.883,39.194c0,10.239-3.912,19.571-10.329,26.577h-53.434h-75.575
	h-81.979h-75.575H53.85c-6.404-7.005-10.329-16.337-10.329-26.577C43.521,93.382,59.282,76.521,79.391,74.757z"/>
<path style="fill:#E09B2D;" d="M106.977,32.38c6.865,0,13.18,2.314,18.216,6.225c-7.044,5.446-11.582,13.972-11.582,23.56
	c0,4.001,0.78,7.823,2.212,11.313c-20.108,1.764-35.87,18.625-35.87,39.194c0,10.239,3.924,19.571,10.329,26.577H53.85
	c-6.404-7.005-10.329-16.337-10.329-26.577c0-20.568,15.762-37.43,35.87-39.194c-1.432-3.49-2.212-7.312-2.212-11.313
	C77.179,45.726,90.512,32.38,106.977,32.38z"/>
<polygon style="fill:#E6E6E6;" points="394.218,140.527 390.588,180.232 339.237,180.232 340.413,140.527 393.847,140.527 "/>
<polygon style="fill:#F95428;" points="340.413,140.527 339.237,180.232 264.429,180.232 264.838,140.527 "/>
<polygon style="fill:#E6E6E6;" points="264.838,140.527 264.429,180.232 256.222,180.232 246.302,217.687 229.071,217.687 
	222.73,256.523 243.822,256.523 264.199,502.41 264.186,502.41 261.093,502.41 205.869,502.41 182.859,140.527 "/>
<polygon style="fill:#F95428;" points="182.859,140.527 205.869,502.41 137.222,502.41 107.284,140.527 "/>
<polygon style="fill:#E54728;" points="107.284,140.527 137.222,502.41 169.053,502.41 139.114,140.527 "/>
<polygon style="fill:#CCCCCC;" points="107.284,140.527 137.222,502.41 88.339,502.41 53.466,140.527 53.85,140.527 "/>
<g>
	<path style="fill:#333333;" d="M187.742,120.977c5.296,0,9.587-4.293,9.587-9.587c0-5.295-4.291-9.587-9.587-9.587
		c-7.84,0-14.219-6.379-14.219-14.22s6.379-14.219,14.219-14.219c5.067,0,9.641,2.624,12.237,7.021
		c1.521,2.577,4.158,4.295,7.129,4.647c2.966,0.35,5.937-0.704,8.016-2.855c3.591-3.71,8.404-5.752,13.555-5.752
		c10.404,0,18.868,8.465,18.868,18.868c0,5.295,4.291,9.587,9.587,9.587s9.587-4.293,9.587-9.587
		c0-20.977-17.067-38.043-38.043-38.043c-6.83,0-13.365,1.779-19.096,5.121c-5.997-5.185-13.747-8.18-21.843-8.18
		c-18.413,0-33.394,14.981-33.394,33.394C154.348,105.997,169.328,120.977,187.742,120.977z"/>
	<path style="fill:#333333;" d="M477.937,254.973l-6.342-38.829c-0.758-4.637-4.764-8.042-9.462-8.042h-9.86l-8.033-30.321
		c-1.113-4.204-4.919-7.133-9.268-7.133h-33.88l2.448-26.777c6.613-8.542,10.222-19.015,10.222-29.914
		c0-21.801-13.954-40.252-33.843-46.593c0.128-1.295,0.192-2.6,0.192-3.913c0-21.715-17.667-39.382-39.383-39.382
		c-6.192,0-12.163,1.418-17.545,4.1c-8.921-13.447-24.134-21.895-40.806-21.895c-10.404,0-20.283,3.23-28.485,9.126
		C246.572,5.934,235.105,0,222.697,0c-11.94,0-23.051,5.473-30.415,14.384c-7.926-5.237-17.295-8.111-26.972-8.111
		c-16.668,0-31.879,8.45-40.797,21.899c-5.384-2.684-11.355-4.103-17.543-4.103c-21.715,0-39.382,17.667-39.382,39.382
		c0,1.313,0.064,2.618,0.19,3.91c-19.89,6.338-33.843,24.792-33.843,46.595c0,10.896,3.607,21.371,10.218,29.918l34.639,359.454
		c0.474,4.916,4.606,8.668,9.544,8.668L427.005,512c4.988,0,9.143-3.825,9.556-8.796l19.645-237.099h12.267
		c2.812,0,5.484-1.235,7.306-3.379C477.603,260.584,478.391,257.749,477.937,254.973z M432.438,208.102H258.764l4.842-18.279h163.99
		L432.438,208.102z M329.602,150.113l-2.557,20.534h-52.119l1.929-20.534H329.602z M346.283,170.648l2.557-20.534h34.875
		l-1.878,20.534H346.283z M74.406,85.408c4.865,6.767,13.401,13.751,25.835,13.751c1.494,0,3.046-0.101,4.653-0.316
		c5.248-0.699,8.936-5.521,8.236-10.77c-0.701-5.25-5.552-8.934-10.771-8.236c-9.526,1.268-13.343-6.853-14.028-8.542
		c-0.014-0.035-0.032-0.066-0.045-0.102c-0.009-0.022-0.014-0.046-0.023-0.068c-0.993-2.429-1.498-5.011-1.498-7.675
		c0-11.142,9.065-20.207,20.207-20.207c5.406,0,10.496,2.116,14.329,5.957c2.338,2.343,5.717,3.313,8.942,2.571
		c3.224-0.744,5.837-3.097,6.912-6.227c4.13-12.02,15.446-20.097,28.155-20.097c8.496,0,16.603,3.645,22.24,9.999
		c2.236,2.521,5.628,3.684,8.944,3.06c3.312-0.623,6.053-2.939,7.221-6.1c2.924-7.914,10.551-13.232,18.981-13.232
		c8.932,0,16.914,5.993,19.409,14.576c1.006,3.458,3.864,6.062,7.403,6.739c3.535,0.674,7.156-0.685,9.369-3.526
		c5.698-7.318,14.265-11.515,23.503-11.515c12.717,0,24.036,8.077,28.167,20.097c1.076,3.131,3.692,5.485,6.917,6.228
		c3.228,0.743,6.608-0.234,8.944-2.58c3.818-3.836,8.905-5.949,14.321-5.949c11.143,0,20.208,9.065,20.208,20.207
		c0,2.645-0.507,5.227-1.511,7.675c-1.154,2.82-0.9,6.021,0.685,8.622c1.586,2.603,4.314,4.295,7.35,4.561
		c15.21,1.332,27.125,14.354,27.125,29.647c0,6.128-1.9,12.021-5.36,16.983H58.469c-3.457-4.964-5.355-10.857-5.355-16.983
		C53.115,100.433,61.938,89.038,74.406,85.408z M173.862,150.113l21.79,342.708h-49.602l-28.352-342.708L173.862,150.113
		L173.862,150.113z M64.023,150.113h34.436l28.352,342.708H97.047L64.023,150.113z M193.078,150.113h64.584l-1.933,20.576
		c-4.137,0.216-7.699,3.05-8.771,7.091l-8.033,30.321h-9.86c-4.699,0-8.705,3.405-9.462,8.042l-6.342,38.829
		c-0.453,2.777,0.336,5.612,2.158,7.754c1.822,2.144,4.493,3.379,7.306,3.379h12.267l18.785,226.716h-38.91L193.078,150.113z
		 M424.88,411.967h-47.637c-18.679,0-33.876-15.197-33.876-33.876c0-9.056,3.523-17.56,9.93-23.957
		c6.385-6.397,14.89-9.919,23.946-9.919h53.251L424.88,411.967z M432.084,325.04h-54.84c-14.184,0-27.507,5.521-37.505,15.534
		c-10.025,10.008-15.546,23.331-15.546,37.516c0,29.252,23.799,53.051,53.051,53.051h46.048l-5.111,61.683h-39.557v-0.004H273.018
		l-18.785-226.716h182.732L432.084,325.04z M447.381,246.932H243.819h-9.814l3.21-19.654h9.09h198.59h9.09l3.21,19.654H447.381z"/>
</g>
<g>
	<path style="fill:#FFFFFF;" d="M397.598,480.04c-0.266,0-0.533-0.012-0.803-0.033c-5.277-0.437-9.2-5.07-8.763-10.347
		l12.76-153.948c0.438-5.277,5.079-9.19,10.347-8.763c5.277,0.437,9.2,5.07,8.763,10.347l-12.76,153.948
		C406.725,476.251,402.534,480.04,397.598,480.04z"/>
	<circle style="fill:#FFFFFF;" cx="231.712" cy="88.882" r="9.587"/>
	<circle style="fill:#FFFFFF;" cx="287.958" cy="37.749" r="9.587"/>
	<circle style="fill:#FFFFFF;" cx="342.287" cy="57.563" r="9.587"/>
	<circle style="fill:#FFFFFF;" cx="374.885" cy="102.305" r="9.587"/>
	<circle style="fill:#FFFFFF;" cx="412.672" cy="288.481" r="9.587"/>
</g>
<g>
</g>
<g>
</g>
<g>
</g>
<g>
</g>
<g>
</g>
<g>
</g>
<g>
</g>
<g>
</g>
<g>
</g>
<g>
</g>
<g>
</g>
<g>
</g>
<g>
</g>
<g>
</g>
<g>
</g>
</svg>
